<svg xmlns="http://www.w3.org/2000/svg" xmlns:xlink="http://www.w3.org/1999/xlink" width="500" zoomAndPan="magnify" viewBox="0 0 375 374.999991" height="500" preserveAspectRatio="xMidYMid meet" version="1.2"><defs><clipPath id="1d644e6596"><path d="M 160.6875 136.253906 L 374.878906 136.253906 L 374.878906 318.796875 L 160.6875 318.796875 Z M 160.6875 136.253906 "/></clipPath><clipPath id="b7828c5b5e"><path d="M 160.6875 136.253906 L 374.878906 136.253906 L 374.878906 318.796875 L 160.6875 318.796875 Z M 160.6875 136.253906 "/></clipPath></defs><g id="9650ac39ab"><g clip-rule="nonzero" clip-path="url(#1d644e6596)"><path style=" stroke:none;fill-rule:nonzero;fill:#1800ad;fill-opacity:1;" d="M 334.8125 294.078125 L 245.503906 294.078125 L 223.800781 318.796875 L 200.847656 294.078125 C 178.8125 294.078125 160.78125 276.046875 160.78125 254.011719 L 160.78125 176.386719 C 160.78125 154.351562 178.8125 136.320312 200.847656 136.320312 L 334.8125 136.320312 C 356.851562 136.320312 374.878906 154.351562 374.878906 176.386719 L 374.878906 254.011719 C 374.878906 276.046875 356.851562 294.078125 334.8125 294.078125 "/></g><path style=" stroke:none;fill-rule:nonzero;fill:#6e62fa;fill-opacity:1;" d="M 173.992188 283.621094 C 228.914062 254.632812 258.023438 197.664062 241.746094 136.320312 L 200.847656 136.320312 C 178.8125 136.320312 160.78125 154.351562 160.78125 176.386719 L 160.78125 254.011719 C 160.78125 265.726562 165.910156 276.277344 173.992188 283.621094 "/><path style=" stroke:none;fill-rule:nonzero;fill:#ff3131;fill-opacity:1;" d="M 237.992188 164.285156 C 237.992188 212.542969 200.035156 253.089844 148.679688 264.546875 C 139.207031 266.660156 154.523438 299.085938 160.78125 310.453125 C 126.144531 310.453125 106.4375 267.347656 100.347656 266.511719 C 43.542969 258.707031 0.105469 215.90625 0.105469 164.285156 C 0.105469 107.121094 53.359375 60.785156 119.046875 60.785156 C 184.738281 60.785156 237.992188 107.121094 237.992188 164.285156 "/><path style=" stroke:none;fill-rule:nonzero;fill:#ffffff;fill-opacity:1;" d="M 10.136719 140.828125 C 10.136719 140.828125 28.535156 88.914062 89.648438 73.140625 C 150.765625 57.371094 194.585938 94.171875 194.585938 94.171875 C 194.585938 94.171875 86.691406 32.398438 10.136719 140.828125 "/><path style=" stroke:none;fill-rule:nonzero;fill:#9c94ff;fill-opacity:1;" d="M 249.570312 142.574219 C 249.570312 142.574219 305.914062 142.574219 315.929688 142.574219 C 325.945312 142.574219 349.109375 140.695312 355.054688 149.773438 C 355.054688 149.773438 340.03125 148.207031 305.601562 148.207031 C 271.167969 148.207031 249.570312 147.894531 249.570312 147.894531 L 249.570312 142.574219 "/><g clip-rule="nonzero" clip-path="url(#b7828c5b5e)"><path style=" stroke:none;fill-rule:nonzero;fill:#1800ad;fill-opacity:1;" d="M 334.8125 294.078125 L 245.503906 294.078125 L 223.800781 318.796875 L 200.847656 294.078125 C 178.8125 294.078125 160.78125 276.046875 160.78125 254.011719 L 160.78125 176.386719 C 160.78125 154.351562 178.8125 136.320312 200.847656 136.320312 L 334.8125 136.320312 C 356.851562 136.320312 374.878906 154.351562 374.878906 176.386719 L 374.878906 254.011719 C 374.878906 276.046875 356.851562 294.078125 334.8125 294.078125 "/></g><path style=" stroke:none;fill-rule:nonzero;fill:#6e62fa;fill-opacity:1;" d="M 173.992188 283.621094 C 228.914062 254.632812 258.023438 197.664062 241.746094 136.320312 L 200.847656 136.320312 C 178.8125 136.320312 160.78125 154.351562 160.78125 176.386719 L 160.78125 254.011719 C 160.78125 265.726562 165.910156 276.277344 173.992188 283.621094 "/><path style=" stroke:none;fill-rule:nonzero;fill:#ff3131;fill-opacity:1;" d="M 237.992188 164.285156 C 237.992188 212.542969 200.035156 253.089844 148.679688 264.546875 C 139.207031 266.660156 154.523438 299.085938 160.78125 310.453125 C 126.144531 310.453125 106.4375 267.347656 100.347656 266.511719 C 43.542969 258.707031 0.105469 215.90625 0.105469 164.285156 C 0.105469 107.121094 53.359375 60.785156 119.046875 60.785156 C 184.738281 60.785156 237.992188 107.121094 237.992188 164.285156 "/><path style=" stroke:none;fill-rule:nonzero;fill:#ffffff;fill-opacity:1;" d="M 10.136719 140.828125 C 10.136719 140.828125 28.535156 88.914062 89.648438 73.140625 C 150.765625 57.371094 194.585938 94.171875 194.585938 94.171875 C 194.585938 94.171875 86.691406 32.398438 10.136719 140.828125 "/><path style=" stroke:none;fill-rule:nonzero;fill:#9c94ff;fill-opacity:1;" d="M 249.570312 142.574219 C 249.570312 142.574219 305.914062 142.574219 315.929688 142.574219 C 325.945312 142.574219 349.109375 140.695312 355.054688 149.773438 C 355.054688 149.773438 340.03125 148.207031 305.601562 148.207031 C 271.167969 148.207031 249.570312 147.894531 249.570312 147.894531 L 249.570312 142.574219 "/></g></svg>